<svg width="236" height="237" viewBox="0 0 236 237" fill="none" xmlns="http://www.w3.org/2000/svg">
<path d="M170.667 72.8151C172.319 71.2361 172.254 68.8911 170.541 67.0994L168.598 65.0663L170.949 62.8193L174.957 67.0126L176.183 65.8405L170.815 60.224L161.647 68.9873L164.981 72.4754C166.681 74.2543 169.003 74.4062 170.667 72.8151ZM164.214 69.2566L167.41 66.2019L169.031 67.8983C170.203 69.1245 170.306 70.3763 169.276 71.3601C168.254 72.3379 167.014 72.1856 165.842 70.9593L164.214 69.2566Z" fill="#272727"/>
<path d="M178.442 76.4985C179.177 77.6035 178.846 78.9 177.692 79.7202L175.132 75.8707C176.35 75.1774 177.707 75.3934 178.442 76.4985ZM175.39 81.2412C174.575 81.4767 173.679 81.1125 173.08 80.2123C172.238 78.9463 172.588 77.5523 173.927 76.6616L174.022 76.5984L177.639 82.0359L178.18 81.6757C180.515 80.1231 181.137 77.7885 179.715 75.6516C178.27 73.478 175.735 73.1583 173.32 74.7645C170.89 76.3804 170.271 78.7661 171.775 81.0275C172.948 82.7912 174.836 83.4564 176.387 82.7414L175.39 81.2412Z" fill="#272727"/>
<path d="M181.768 88.3309L187.413 90.2704L186.477 88.2049L181.381 86.5381L181.351 86.474L184.954 84.8423L184.175 83.1209L175.752 86.9357L176.532 88.657L180.415 86.8983L180.444 86.9623L178.073 92.0596L179.056 94.2293L181.768 88.3309Z" fill="#272727"/>
<path d="M181.955 98.7806C181.686 97.797 182.019 97.0138 182.799 96.8008C183.562 96.5924 184.215 97.0794 184.59 98.1524L185.325 100.311L184.621 100.503C183.46 100.821 182.305 100.061 181.955 98.7806ZM180.366 98.6677C180.686 99.8378 181.621 100.794 182.754 101.04L182.766 101.083L181.299 101.483L181.778 103.238L187.925 101.56C189.714 101.072 190.482 99.3771 189.891 97.2151C189.289 95.0106 187.727 93.9611 186.089 94.2992L186.561 96.0289C187.402 95.9724 188.091 96.4948 188.381 97.5547C188.686 98.6739 188.275 99.5057 187.283 99.7766L186.597 99.9641L185.786 97.5616C185.088 95.4743 183.804 94.5404 182.244 94.9663C180.641 95.4038 179.889 96.9211 180.366 98.6677Z" fill="#272727"/>
<path d="M188.191 112.272C185.137 112.43 182.703 113.366 180.642 115.206L180.728 116.873C182.137 115.533 185.413 114.37 188.3 114.221C191.188 114.071 194.557 114.892 196.097 116.08L196.011 114.412C193.78 112.794 191.263 112.114 188.191 112.272Z" fill="#272727"/>
<path d="M183.436 119.379L183.333 121.284L191.065 121.701L190.966 123.544L192.449 123.624L192.55 121.755L193.419 121.802C194.235 121.846 194.627 122.254 194.582 123.079C194.568 123.333 194.537 123.587 194.492 123.769L195.896 123.845C195.953 123.602 196.02 123.174 196.041 122.788C196.143 120.91 195.346 120.022 193.555 119.925L192.651 119.877L192.72 118.604L191.237 118.524L191.168 119.797L183.436 119.379Z" fill="#272727"/>
<path d="M183.009 125.822L182.707 127.696L188.174 128.578C189.466 128.786 190.153 129.663 189.958 130.869C189.9 131.233 189.803 131.556 189.718 131.694L191.463 131.975C191.511 131.841 191.592 131.613 191.636 131.344C191.809 130.268 191.307 129.351 190.289 128.875L190.296 128.831L191.849 129.082L192.138 127.294L183.009 125.822Z" fill="#272727"/>
<path d="M180.645 136.32C179.871 138.85 181.102 141.046 183.951 141.917C186.792 142.786 189.043 141.645 189.814 139.124C190.585 136.602 189.357 134.398 186.516 133.529C183.667 132.658 181.418 133.79 180.645 136.32ZM182.141 136.777C182.575 135.357 183.984 134.777 185.951 135.378C187.909 135.977 188.753 137.246 188.318 138.666C187.884 140.087 186.475 140.667 184.517 140.068C182.55 139.467 181.704 138.206 182.141 136.777Z" fill="#272727"/>
<path d="M178.646 143.079L177.793 144.775L182.606 147.196C183.886 147.839 184.347 149.035 183.747 150.229C183.154 151.407 182.179 151.644 180.938 151.02L175.921 148.497L175.064 150.201L180.411 152.89C182.304 153.842 183.991 153.382 184.907 151.56C185.547 150.288 185.408 149.117 184.691 148.195L184.711 148.156L186.093 148.851L186.906 147.233L178.646 143.079Z" fill="#272727"/>
<path d="M182.48 159.935L180.683 158.685L181.451 157.581L180.217 156.723L179.449 157.828L175.091 154.797C173.626 153.779 172.625 153.972 171.556 155.509C171.315 155.855 171.103 156.222 171.026 156.425L172.26 157.283C172.309 157.167 172.47 156.904 172.58 156.745C173.022 156.11 173.518 156.027 174.175 156.484L178.361 159.394L177.357 160.837L178.591 161.695L179.595 160.251L181.392 161.501L182.48 159.935Z" fill="#272727"/>
<path d="M172.568 167.002C171.667 167.977 170.329 167.961 169.26 167.032L172.399 163.638C173.359 164.658 173.469 166.028 172.568 167.002ZM167.24 165.152C166.819 164.416 166.962 163.459 167.696 162.665C168.728 161.549 170.165 161.561 171.346 162.653L171.43 162.731L166.997 167.525L167.474 167.967C169.533 169.87 171.948 169.925 173.69 168.041C175.463 166.124 175.177 163.585 173.047 161.616C170.905 159.635 168.44 159.595 166.596 161.589C165.158 163.144 164.956 165.136 166.016 166.475L167.24 165.152Z" fill="#272727"/>
<path d="M161.853 166.849L160.353 168.012L163.653 172.27C164.53 173.403 164.431 174.681 163.375 175.499C162.333 176.306 161.35 176.1 160.5 175.003L157.06 170.563L155.552 171.732L159.218 176.463C160.516 178.137 162.236 178.449 163.848 177.2C164.974 176.328 165.353 175.211 165.103 174.071L165.138 174.044L166.086 175.266L167.517 174.157L161.853 166.849Z" fill="#272727"/>
<path d="M149.964 175C148.777 175.632 148.163 176.725 148.178 177.912L148.147 177.928L147.408 176.539L145.778 177.406L151.734 188.603L153.418 187.708L151.082 183.316L151.113 183.299C152.049 183.956 153.294 184.05 154.466 183.427C156.514 182.338 157.009 179.974 155.639 177.398C154.269 174.821 152.028 173.903 149.964 175ZM153.257 182.258C151.969 182.943 150.517 182.292 149.618 180.6C148.71 178.893 148.989 177.341 150.277 176.656C151.604 175.95 153.008 176.587 153.924 178.31C154.836 180.025 154.584 181.553 153.257 182.258Z" fill="#272727"/>
<path d="M141.452 184.471C142.779 188.094 144.725 189.777 146.485 190.826L148.053 190.252C146.888 189.602 144.593 187.373 143.287 183.808C141.981 180.242 142.285 177.061 142.76 175.801L141.192 176.376C140.529 178.322 140.131 180.864 141.452 184.471Z" fill="#272727"/>
<path d="M106.431 182.637L105.01 195.239L106.966 195.46L107.567 190.133L114.038 190.862L113.438 196.19L115.394 196.411L116.815 183.808L114.859 183.587L114.23 189.168L107.758 188.438L108.387 182.857L106.431 182.637Z" fill="#272727"/>
<path d="M103.093 178.385C101.252 177.822 100.176 178.246 98.7638 180.158L92.5989 188.447L94.5152 189.033L98.9592 182.525L98.9844 182.533L99.0286 190.414L100.995 191.015L100.508 181.188C100.51 181.179 100.829 180.707 100.834 180.69C101.389 179.867 101.943 179.651 102.792 179.91C102.943 179.957 103.246 180.049 103.37 180.124L103.82 178.653C103.693 178.587 103.236 178.428 103.093 178.385Z" fill="#272727"/>
<path d="M84.9768 185.288C86.1748 185.88 87.4279 185.743 88.3872 185.031L88.4187 185.046L87.7147 186.473L89.362 187.286L94.8073 176.252L93.1049 175.412L91.0784 179.518L91.039 179.498C91.0212 178.343 90.3632 177.293 89.1731 176.706C87.0924 175.679 84.8924 176.661 83.5972 179.286C82.302 181.91 82.8724 184.25 84.9768 185.288ZM88.9421 178.385C90.2505 179.031 90.5651 180.578 89.7133 182.304C88.8693 184.014 87.4344 184.718 86.1339 184.076C84.7862 183.411 84.4912 181.883 85.3469 180.149C86.2065 178.407 87.5944 177.72 88.9421 178.385Z" fill="#272727"/>
<path d="M73.5557 174.543C72.7811 176.084 73.1145 178.07 74.9757 179.396C77.116 180.921 79.6011 180.371 81.284 178.009C83.0027 175.597 82.6798 173.111 80.5252 171.576C78.75 170.312 76.7772 170.46 75.4793 171.812L76.9682 172.873C77.7439 172.239 78.6716 172.209 79.5878 172.862C80.7904 173.719 80.8791 175.26 79.7164 176.892C78.5842 178.481 77.0747 178.949 75.8793 178.097C74.9201 177.414 74.7503 176.441 75.0446 175.603L73.5557 174.543Z" fill="#272727"/>
<path d="M67.4884 167.294C69.7397 165.223 71.0166 162.95 71.4295 160.218L70.2991 158.989C70.069 160.92 68.2895 163.906 66.1612 165.863C64.0328 167.821 60.9152 169.339 58.9716 169.407L60.102 170.636C62.8526 170.459 65.2242 169.376 67.4884 167.294Z" fill="#272727"/>
<path d="M66.6084 158.795L65.475 157.261L59.2473 161.862L58.1505 160.378L56.9559 161.261L58.0683 162.766L57.3685 163.283C56.7111 163.769 56.1491 163.704 55.6581 163.039C55.5066 162.834 55.3693 162.619 55.2879 162.449L54.1569 163.285C54.2678 163.509 54.4884 163.881 54.7182 164.193C55.8359 165.705 57.0159 165.882 58.4579 164.817L59.186 164.279L59.9433 165.304L61.138 164.421L60.3807 163.396L66.6084 158.795Z" fill="#272727"/>
<path d="M62.9035 153.693L61.9435 152.055L57.1665 154.855C56.0368 155.518 54.9494 155.279 54.3316 154.225C54.1449 153.906 54.0139 153.596 53.9915 153.436L52.4674 154.329C52.5157 154.464 52.5978 154.691 52.7356 154.926C53.2867 155.866 54.258 156.254 55.3462 155.973L55.3684 156.011L54.0112 156.807L54.9267 158.369L62.9035 153.693Z" fill="#272727"/>
<path d="M58.0308 144.134C57.0206 141.689 54.6745 140.775 51.9209 141.913C49.1753 143.047 48.1618 145.359 49.1687 147.796C50.1756 150.232 52.525 151.154 55.2706 150.02C58.0242 148.882 59.0411 146.579 58.0308 144.134ZM56.585 144.731C57.1522 146.104 56.4329 147.447 54.5321 148.233C52.6395 149.015 51.1818 148.571 50.6146 147.198C50.0474 145.825 50.7666 144.482 52.6593 143.7C54.56 142.915 56.0144 143.35 56.585 144.731Z" fill="#272727"/>
<path d="M55.2009 137.562L54.7818 135.711L49.527 136.9C48.1298 137.217 47.0138 136.586 46.7188 135.283C46.4277 133.997 47.0299 133.194 48.3843 132.888L53.8619 131.648L53.4408 129.787L47.6032 131.109C45.5373 131.577 44.5267 133.004 44.9769 134.993C45.2913 136.381 46.143 137.198 47.2823 137.454L47.292 137.497L45.7833 137.838L46.1831 139.604L55.2009 137.562Z" fill="#272727"/>
<path d="M41.5235 127.284L43.7035 127.091L43.8216 128.431L45.3187 128.299L45.2006 126.959L50.4887 126.493C52.266 126.337 52.9111 125.547 52.7467 123.682C52.7097 123.262 52.6376 122.845 52.5665 122.64L51.0694 122.772C51.1065 122.892 51.151 123.197 51.168 123.389C51.2359 124.16 50.9078 124.542 50.1111 124.612L45.0331 125.06L44.8788 123.308L43.3817 123.44L43.536 125.191L41.356 125.384L41.5235 127.284Z" fill="#272727"/>
<path d="M44.5827 115.609C44.6493 114.284 45.6863 113.438 47.1017 113.465L46.8695 118.082C45.4787 117.916 44.516 116.935 44.5827 115.609ZM49.8576 113.613C50.6523 113.908 51.1564 114.734 51.1021 115.814C51.0257 117.332 49.915 118.244 48.3086 118.164L48.1945 118.158L48.5225 111.636L47.873 111.603C45.0728 111.462 43.1842 112.969 43.0553 115.532C42.9242 118.139 44.7714 119.904 47.6682 120.05C50.5825 120.196 52.4996 118.647 52.636 115.935C52.7424 113.819 51.6202 112.161 49.9481 111.813L49.8576 113.613Z" fill="#272727"/>
<path d="M52.8884 108.756L53.3006 106.903L48.0415 105.733C46.643 105.422 45.9035 104.375 46.1935 103.071C46.4798 101.784 47.3674 101.315 48.7229 101.616L54.2052 102.836L54.6193 100.974L48.7767 99.6746C46.7091 99.2147 45.1855 100.073 44.7428 102.064C44.4336 103.454 44.8548 104.556 45.7755 105.274L45.766 105.317L44.256 104.981L43.8629 106.748L52.8884 108.756Z" fill="#272727"/>
<path d="M56.7442 95.0037C57.2512 93.7582 57.0221 92.5262 56.2507 91.6239L56.264 91.5913L57.7211 92.1845L58.417 90.475L46.6705 85.693L45.9514 87.4595L50.5588 89.3351L50.5456 89.3677C49.4058 89.4636 48.3894 90.1886 47.889 91.4177C47.0141 93.5668 48.1485 95.6987 50.8511 96.799C53.5537 97.8992 55.8627 97.1691 56.7442 95.0037ZM49.5661 91.5406C50.1162 90.1893 51.6481 89.7596 53.4227 90.4821C55.2136 91.2111 55.9935 92.582 55.4434 93.9333C54.8767 95.3253 53.3906 95.7356 51.5835 95C49.7845 94.2676 48.9994 92.9326 49.5661 91.5406Z" fill="#272727"/>
<path d="M57.058 82.4868C53.7156 80.5591 51.143 80.5161 49.1195 80.8404L48.2852 82.287C49.5955 82.0383 52.7865 82.2756 56.0755 84.1726C59.3646 86.0696 61.1724 88.7052 61.6164 89.9759L62.4507 88.5294C61.7106 86.611 60.3851 84.4057 57.058 82.4868Z" fill="#272727"/>
<path d="M79.4183 64.9934L81.06 63.7113L69.6446 56.5345L67.9683 57.8436L72.1659 70.6576L73.7799 69.3971L72.5844 65.9815L76.3941 63.0061L79.4183 64.9934ZM70.0702 58.8785L70.1118 58.8461L75.0255 62.0676L72.0054 64.4263L70.0702 58.8785Z" fill="#272727"/>
<path d="M83.228 51.6475C82.0416 52.2615 81.4081 53.3513 81.4129 54.5463L81.3817 54.5624L80.6506 53.1496L79.0192 53.9939L84.6746 64.9219L86.3606 64.0493L84.256 59.9825L84.295 59.9623C85.236 60.6332 86.4716 60.7261 87.6503 60.1161C89.711 59.0497 90.2246 56.6957 88.8795 54.0964C87.5343 51.4971 85.3122 50.5689 83.228 51.6475ZM86.4349 58.9341C85.1391 59.6047 83.7069 58.9406 82.8222 57.2311C81.9456 55.5373 82.2304 53.9649 83.5183 53.2984C84.8531 52.6076 86.2579 53.276 87.1466 54.9932C88.0393 56.7183 87.7697 58.2433 86.4349 58.9341Z" fill="#272727"/>
<path d="M98.5118 48.8474C97.7283 47.3102 95.9307 46.4028 93.7601 47.1172C91.2639 47.9387 90.235 50.2667 91.1417 53.0217C92.0676 55.8352 94.2615 57.047 96.7744 56.22C98.8449 55.5386 99.8935 53.8611 99.5726 52.0144L97.8361 52.5859C97.8879 53.5866 97.3624 54.3517 96.2938 54.7034C94.8912 55.165 93.5965 54.3235 92.97 52.42C92.3601 50.5666 92.8772 49.0733 94.2714 48.6145C95.3901 48.2463 96.275 48.686 96.7753 49.4189L98.5118 48.8474Z" fill="#272727"/>
<path d="M107.558 48.2822C107.904 51.3212 108.988 53.6923 110.952 55.636L112.611 55.4471C111.187 54.1231 109.823 50.9258 109.496 48.0528C109.169 45.1797 109.78 41.7665 110.87 40.1562L109.211 40.3451C107.733 42.6717 107.21 45.2258 107.558 48.2822Z" fill="#272727"/>
<path d="M116.924 39.7562L114.957 39.6789L114.634 47.8991C114.526 50.6303 116.4 52.6391 119.579 52.7642C122.758 52.8893 124.784 51.0339 124.891 48.3026L125.215 40.0824L123.256 40.0053L122.94 48.0587C122.868 49.8678 121.668 51.096 119.648 51.0165C117.628 50.9371 116.536 49.6187 116.608 47.8096L116.924 39.7562Z" fill="#272727"/>
<path d="M126.73 52.767L128.849 53.2795L133.095 49.3333L133.154 49.3477L135.085 54.7881L137.323 55.3295L134.702 48.221L134.714 48.1698L140.382 43.0211L138.22 42.4982L133.992 46.5211L133.924 46.5045L132.036 41.002L129.755 40.4503L132.33 47.5207L132.316 47.5805L126.73 52.767Z" fill="#272727"/>
<path d="M145.318 53.0755C146.787 49.5074 146.489 46.9517 145.899 44.9889L144.355 44.3535C144.775 45.6193 144.962 48.8136 143.517 52.3249C142.072 55.8361 139.699 57.9769 138.499 58.5853L140.043 59.2207C141.846 58.2331 143.857 56.6273 145.318 53.0755Z" fill="#272727"/>
</svg>
